<?xml version="1.0" encoding="UTF-8"?>
<svg width="900px" height="683px" viewBox="0 0 900 683" version="1.1" xmlns="http://www.w3.org/2000/svg" xmlns:xlink="http://www.w3.org/1999/xlink">
    <!-- Generator: Sketch 48.2 (47327) - http://www.bohemiancoding.com/sketch -->
    <title>madlib=poem</title>
    <desc>Created with Sketch.</desc>
    <defs></defs>
    <g id="Madlib-diagrams" stroke="none" stroke-width="1" fill="none" fill-rule="evenodd">
        <g id="madlib=poem">
            <g id="Group" transform="translate(-1.000000, -12.000000)">
                <polygon id="Page-1" fill="#204056" points="0 739 900 739 900 0 0 0"></polygon>
                <g id="Group-Copy-2" transform="translate(70.370370, 83.017051)">
                    <path d="M8.20660315,3.95809018 L8.20660315,16.726123 C8.90540359,16.726123 10.3498536,16.7431469 12.5399964,16.7771951 C14.7301392,16.8112434 16.4217223,16.8282673 17.6147962,16.8282673 C20.8701836,16.8282673 23.13699,16.2877593 24.4152835,15.2067271 C25.693577,14.1256949 26.3327142,12.4105397 26.3327142,10.0612099 C26.3327142,8.00129027 25.7191425,6.46914166 24.4919807,5.46471805 C23.264819,4.46029445 21.2110583,3.95809018 18.3306369,3.95809018 L8.20660315,3.95809018 Z M32.4429265,38.2019542 L27.3297781,38.2019542 L22.1143667,26.3532198 C20.699722,23.1697077 19.7964081,21.2545219 19.4043981,20.607605 C18.1601924,20.6927256 16.6859161,20.7352853 14.9815248,20.7352853 L8.20660315,20.5309968 L8.20660315,38.2019542 L3.68146683,38.2019542 L3.68146683,0 L15.7740628,0 C17.1716636,0 18.4073288,0.0340477471 19.4810953,0.102144263 C20.5548619,0.170240778 21.6243514,0.293663861 22.6895959,0.472417215 C23.7548405,0.651170568 24.6794589,0.898016734 25.4634789,1.21296312 C26.2474989,1.5279095 26.9803762,1.93648247 27.6621327,2.43869427 C28.3438893,2.94090607 28.8935472,3.54099761 29.3111231,4.2389869 C29.728699,4.93697618 30.0567894,5.76689002 30.2954042,6.7287533 C30.5340189,7.69061658 30.6533245,8.77588852 30.6533245,9.98460167 C30.6533245,12.3679797 30.0269701,14.4193565 28.7742425,16.1387935 C27.5215149,17.8582305 25.7447136,19.0499017 23.4437853,19.7138427 C23.4437853,19.7478909 23.6142219,20.0543207 23.9551002,20.6331411 C24.2959784,21.2119614 24.7007653,21.9227082 25.1694729,22.7654025 C25.6381805,23.6080969 26.0003582,24.3103317 26.2560169,24.872128 L32.4429265,38.2019542 Z M45.2939727,24.2592624 C45.2939727,27.5789675 46.0311109,30.2389478 47.5054094,32.2392829 C48.9797079,34.239618 51.1314697,35.2397706 53.9607592,35.2397706 C56.755961,35.2397706 58.8651136,34.243874 60.2882804,32.2520509 C61.7114471,30.2602278 62.4230198,27.5789678 62.4230198,24.2081902 C62.4230198,20.7863403 61.7199689,18.0923124 60.3138461,16.1260255 C58.9077233,14.1597386 56.7644833,13.1766099 53.884062,13.1766099 C51.0888603,13.1766099 48.9584031,14.1810184 47.4926265,16.1898656 C46.02685,18.1987128 45.2939727,20.8884849 45.2939727,24.2592624 Z M66.8458932,24.1826542 C66.8458932,28.523807 65.6869245,32.0434929 63.3689523,34.7418173 C61.0509801,37.4401418 57.8467725,38.7892837 53.7562333,38.7892837 C49.8190894,38.7892837 46.6873173,37.4273739 44.3608232,34.7035132 C42.034329,31.9796526 40.8710994,28.4812466 40.8710994,24.2081902 C40.8710994,19.8500132 42.0385899,16.3260714 44.373606,13.6362591 C46.7086221,10.9464467 49.9128297,9.60156069 53.986325,9.60156069 C57.9916446,9.60156069 61.1361994,10.9507027 63.4200838,13.6490271 C65.7039681,16.3473515 66.8458932,19.8585254 66.8458932,24.1826542 Z M85.6026258,38.7892837 C83.6937075,38.7892837 81.9339499,38.5849973 80.3233001,38.1764182 C78.7126503,37.7678391 77.4045496,37.240099 76.3989587,36.5931821 L76.9358393,32.9925968 C79.7821728,34.5077443 82.5773326,35.2653067 85.3214027,35.2653067 C89.4801175,35.2653067 91.6190965,33.8012536 91.7384039,30.8731034 C91.7384039,29.630342 91.2952688,28.6514692 90.4089853,27.9364558 C89.5227018,27.2214424 87.7842487,26.4213204 85.1935739,25.5360657 L83.0716174,24.7955198 C80.6172939,23.9783616 78.8660581,22.9654411 77.8178574,21.7567279 C76.7696567,20.5480148 76.2370424,19.041402 76.2199985,17.2368443 C76.2199985,15.0407317 77.1020078,13.2191772 78.8660528,11.7721263 C80.6300978,10.3250753 83.0460363,9.60156069 86.1139407,9.60156069 C89.2841085,9.60156069 92.1730084,10.2144201 94.7807272,11.4401574 L93.5280058,14.7087738 C90.8861993,13.6192296 88.4148689,13.0744656 86.1139407,13.0744656 C84.3243298,13.0744656 82.9224889,13.427711 81.9083761,14.1342123 C80.8942633,14.8407137 80.3872145,15.8323543 80.3872145,17.109164 C80.3872145,18.1987082 80.7536531,19.032878 81.4865414,19.6116984 C82.2194296,20.1905188 83.6851842,20.8544499 85.883849,21.6035115 C86.4462981,21.8078011 87.1536099,22.0461353 88.0058056,22.3185214 C90.8350951,23.2378243 92.8377249,24.3230963 94.0137549,25.5743698 C95.1897849,26.8256432 95.7777911,28.5152627 95.7777911,30.6432788 C95.7437033,33.2309464 94.8148239,35.2355075 92.9911252,36.6570223 C91.1674265,38.078537 88.704618,38.7892837 85.6026258,38.7892837 Z M116.988835,13.1255377 C114.807214,13.1255377 113.026152,13.895868 111.645595,15.4365517 C110.265038,16.9772354 109.455464,19.0839397 109.216849,21.7567279 L124.019414,21.7567279 C124.019414,18.9817949 123.39306,16.8495548 122.140332,15.3599435 C120.887604,13.8703322 119.170456,13.1255377 116.988835,13.1255377 Z M117.832504,38.7892837 C113.759009,38.7892837 110.550541,37.4954693 108.207003,34.9078018 C105.863465,32.3201342 104.691713,28.7791685 104.691713,24.2847984 C104.691713,19.9436456 105.825116,16.4239597 108.091957,13.7256353 C110.358797,11.0273109 113.341437,9.65263307 117.039966,9.60156069 C120.516925,9.60156069 123.273736,10.7889759 125.310484,13.1638418 C127.347232,15.5387078 128.36559,18.7094043 128.36559,22.6760263 C128.36559,22.8803159 128.361329,23.2548411 128.352807,23.7996132 C128.344285,24.3443853 128.340024,24.7359344 128.340024,24.9742722 L109.089021,24.9742722 C109.140152,28.1577843 109.962509,30.6390139 111.556115,32.4180354 C113.149721,34.1970568 115.292961,35.0865542 117.985899,35.0865542 C120.95154,35.0865542 123.925658,34.303456 126.908343,32.7372362 L127.573052,36.184605 C124.726719,37.9210662 121.479902,38.7892837 117.832504,38.7892837 Z M147.02006,38.7892837 C145.111142,38.7892837 143.351384,38.5849973 141.740734,38.1764182 C140.130084,37.7678391 138.821984,37.240099 137.816393,36.5931821 L138.353273,32.9925968 C141.199607,34.5077443 143.994767,35.2653067 146.738837,35.2653067 C150.897551,35.2653067 153.03653,33.8012536 153.155838,30.8731034 C153.155838,29.630342 152.712703,28.6514692 151.826419,27.9364558 C150.940136,27.2214424 149.201683,26.4213204 146.611008,25.5360657 L144.489051,24.7955198 C142.034728,23.9783616 140.283492,22.9654411 139.235291,21.7567279 C138.187091,20.5480148 137.654476,19.041402 137.637433,17.2368443 C137.637433,15.0407317 138.519442,13.2191772 140.283487,11.7721263 C142.047532,10.3250753 144.46347,9.60156069 147.531375,9.60156069 C150.701542,9.60156069 153.590442,10.2144201 156.198161,11.4401574 L154.94544,14.7087738 C152.303633,13.6192296 149.832303,13.0744656 147.531375,13.0744656 C145.741764,13.0744656 144.339923,13.427711 143.32581,14.1342123 C142.311697,14.8407137 141.804648,15.8323543 141.804648,17.109164 C141.804648,18.1987082 142.171087,19.032878 142.903975,19.6116984 C143.636864,20.1905188 145.102618,20.8544499 147.301283,21.6035115 C147.863732,21.8078011 148.571044,22.0461353 149.42324,22.3185214 C152.252529,23.2378243 154.255159,24.3230963 155.431189,25.5743698 C156.607219,26.8256432 157.195225,28.5152627 157.195225,30.6432788 C157.161137,33.2309464 156.232258,35.2355075 154.408559,36.6570223 C152.58486,38.078537 150.122052,38.7892837 147.02006,38.7892837 Z M192.919088,35.3419149 C194.947314,35.3419149 196.732637,34.784383 198.275111,33.6693026 C199.817585,32.5542221 200.810379,31.0518653 201.25352,29.162187 L201.25352,24.4380148 C201.168301,24.4380148 200.65273,24.4805745 199.706793,24.5656952 C198.760856,24.6508158 198.143023,24.7018874 197.853277,24.7189116 C194.154747,25.04237 191.576894,25.6467175 190.11964,26.5319722 C188.662385,27.4172269 187.933769,28.8387204 187.933769,30.7964952 C187.933769,32.2946185 188.376904,33.4267061 189.263187,34.1927919 C190.149471,34.9588777 191.368092,35.3419149 192.919088,35.3419149 Z M202.199453,38.2019542 C201.943794,37.11241 201.696661,35.9377627 201.458046,34.6779772 C199.90705,36.2271729 198.449817,37.2996769 197.086304,37.8955214 C195.722791,38.4913659 194.120687,38.7892837 192.279945,38.7892837 C189.655182,38.7892837 187.54603,38.1040728 185.952424,36.7336305 C184.358818,35.3631881 183.562027,33.3926747 183.562027,30.8220313 C183.562027,27.9619776 184.64856,25.8425053 186.821659,24.4635509 C188.994758,23.0845965 192.12653,22.2248908 196.217069,21.8844083 C196.779518,21.8333359 197.62744,21.7609844 198.76086,21.6673517 C199.894281,21.573719 200.742203,21.5013675 201.304652,21.4502952 L201.304652,18.9732968 C201.304652,16.9984978 200.844473,15.5344447 199.924102,14.5810935 C199.00373,13.6277423 197.55502,13.1510738 195.577926,13.1510738 C192.816812,13.1510738 190.030174,13.8320288 187.217928,15.1939591 C187.132708,14.9896695 186.911141,14.3980899 186.553219,13.4192025 C186.195297,12.4403151 186.007816,11.9338549 185.990772,11.8998066 C187.234978,11.2018173 188.713515,10.6442855 190.426429,10.2271943 C192.139342,9.81010314 193.882056,9.60156069 195.654623,9.60156069 C199.148625,9.60156069 201.666825,10.363379 203.2093,11.8870386 C204.751774,13.4106981 205.522999,16.0025828 205.522999,19.6627706 L205.522999,38.2019542 L202.199453,38.2019542 Z M229.827498,9.93352954 C230.594474,9.93352954 231.293264,9.98460116 231.923889,10.0867459 L231.770494,14.0193 C230.986474,13.883107 230.304728,13.8150115 229.725235,13.8150115 C227.339087,13.8150115 225.400371,14.6449254 223.909029,16.3047779 C222.417686,17.9646305 221.672026,20.0202632 221.672026,22.4717378 L221.672026,38.2019542 L217.402547,38.2019542 C217.385503,21.007584 217.376982,11.6699894 217.376982,10.1888902 L220.93062,10.1888902 L221.339672,15.2194951 C222.311175,13.6362511 223.54684,12.3594606 225.046704,11.3890853 C226.546568,10.4187099 228.14015,9.93352954 229.827498,9.93352954 Z M251.191936,13.1255377 C249.010315,13.1255377 247.229253,13.895868 245.848696,15.4365517 C244.468139,16.9772354 243.658565,19.0839397 243.419951,21.7567279 L258.222515,21.7567279 C258.222515,18.9817949 257.596161,16.8495548 256.343433,15.3599435 C255.090706,13.8703322 253.373557,13.1255377 251.191936,13.1255377 Z M252.035606,38.7892837 C247.96211,38.7892837 244.753642,37.4954693 242.410104,34.9078018 C240.066566,32.3201342 238.894814,28.7791685 238.894814,24.2847984 C238.894814,19.9436456 240.028218,16.4239597 242.295058,13.7256353 C244.561898,11.0273109 247.544538,9.65263307 251.243068,9.60156069 C254.720026,9.60156069 257.476838,10.7889759 259.513585,13.1638418 C261.550333,15.5387078 262.568691,18.7094043 262.568691,22.6760263 C262.568691,22.8803159 262.56443,23.2548411 262.555908,23.7996132 C262.547386,24.3443853 262.543126,24.7359344 262.543126,24.9742722 L243.292122,24.9742722 C243.343254,28.1577843 244.16561,30.6390139 245.759216,32.4180354 C247.352822,34.1970568 249.496062,35.0865542 252.189,35.0865542 C255.154641,35.0865542 258.128759,34.303456 261.111444,32.7372362 L261.776153,36.184605 C258.92982,37.9210662 255.683003,38.7892837 252.035606,38.7892837 Z M551.93028,202.695075 C553.958506,202.695075 555.743829,202.137543 557.286303,201.022462 C558.828777,199.907382 559.82157,198.405025 560.264712,196.515347 L560.264712,191.791175 C560.179492,191.791175 559.663922,191.833734 558.717985,191.918855 C557.772047,192.003976 557.154215,192.055047 556.864468,192.072071 C553.165939,192.39553 550.588086,192.999877 549.130831,193.885132 C547.673577,194.770387 546.94496,196.19188 546.94496,198.149655 C546.94496,199.647778 547.388096,200.779866 548.274379,201.545952 C549.160662,202.312038 550.379284,202.695075 551.93028,202.695075 Z M561.210644,205.555114 C560.954986,204.46557 560.707853,203.290923 560.469238,202.031137 C558.918242,203.580333 557.461009,204.652837 556.097496,205.248681 C554.733983,205.844526 553.131879,206.142444 551.291137,206.142444 C548.666374,206.142444 546.557221,205.457233 544.963615,204.08679 C543.37001,202.716348 542.573219,200.745835 542.573219,198.175191 C542.573219,195.315138 543.659752,193.195665 545.832851,191.816711 C548.00595,190.437756 551.137722,189.578051 555.228261,189.237568 C555.79071,189.186496 556.638632,189.114144 557.772052,189.020512 C558.905472,188.926879 559.753394,188.854527 560.315843,188.803455 L560.315843,186.326457 C560.315843,184.351658 559.855665,182.887605 558.935293,181.934253 C558.014922,180.980902 556.566211,180.504234 554.589117,180.504234 C551.828003,180.504234 549.041365,181.185189 546.22912,182.547119 C546.1439,182.342829 545.922333,181.75125 545.56441,180.772362 C545.206488,179.793475 545.019008,179.287015 545.001964,179.252967 C546.24617,178.554977 547.724707,177.997445 549.43762,177.580354 C551.150534,177.163263 552.893248,176.954721 554.665814,176.954721 C558.159817,176.954721 560.678017,177.716539 562.220491,179.240198 C563.762965,180.763858 564.534191,183.355743 564.534191,187.01593 L564.534191,205.555114 L561.210644,205.555114 Z M588.838689,177.286689 C589.605666,177.286689 590.304456,177.337761 590.93508,177.439906 L590.781686,181.37246 C589.997666,181.236267 589.31592,181.168171 588.736427,181.168171 C586.350279,181.168171 584.411563,181.998085 582.92022,183.657938 C581.428878,185.31779 580.683218,187.373423 580.683218,189.824898 L580.683218,205.555114 L576.413739,205.555114 C576.396695,188.360744 576.388173,179.023149 576.388173,177.54205 L579.941811,177.54205 L580.350863,182.572655 C581.322366,180.989411 582.558031,179.712621 584.057896,178.742245 C585.55776,177.77187 587.151342,177.286689 588.838689,177.286689 Z M610.203128,180.478698 C608.021507,180.478698 606.240445,181.249028 604.859888,182.789712 C603.479331,184.330395 602.669757,186.4371 602.431142,189.109888 L617.233707,189.109888 C617.233707,186.334955 616.607352,184.202715 615.354625,182.713103 C614.101897,181.223492 612.384749,180.478698 610.203128,180.478698 Z M611.046797,206.142444 C606.973302,206.142444 603.764834,204.848629 601.421295,202.260962 C599.077757,199.673294 597.906006,196.132328 597.906006,191.637958 C597.906006,187.296805 599.039409,183.77712 601.30625,181.078795 C603.57309,178.380471 606.55573,177.005793 610.254259,176.954721 C613.731218,176.954721 616.488029,178.142136 618.524777,180.517002 C620.561524,182.891868 621.579883,186.062564 621.579883,190.029186 C621.579883,190.233476 621.575622,190.608001 621.5671,191.152773 C621.558578,191.697545 621.554317,192.089094 621.554317,192.327432 L602.303314,192.327432 C602.354445,195.510944 603.176802,197.992174 604.770408,199.771195 C606.364014,201.550217 608.507253,202.439714 611.200192,202.439714 C614.165833,202.439714 617.139951,201.656616 620.122636,200.090396 L620.787345,203.537765 C617.941011,205.274226 614.694195,206.142444 611.046797,206.142444 Z M662.058974,180.504234 C659.348992,180.504234 657.273927,181.436291 655.833716,183.300433 C654.393505,185.164575 653.673411,187.901163 653.673411,191.510278 C653.673411,198.89875 656.460049,202.592931 662.033409,202.592931 C663.413966,202.592931 664.628326,202.307781 665.676527,201.737472 C666.724727,201.167164 667.551345,200.367042 668.156404,199.337082 C668.761463,198.307122 669.21312,197.145243 669.511388,195.851409 C669.809657,194.557575 669.958789,193.119058 669.958789,191.535814 C669.958789,189.390774 669.707395,187.518148 669.204599,185.91788 C668.701804,184.317612 667.84536,183.015285 666.635242,182.010862 C665.425124,181.006438 663.899717,180.504234 662.058974,180.504234 Z M662.493592,176.954721 C664.982003,176.954721 667.129504,177.584604 668.936159,178.844389 C670.742814,180.104175 672.097784,181.815074 673.001112,183.977139 C673.904439,186.139203 674.356096,188.616177 674.356096,191.408134 C674.356096,194.302236 673.9087,196.847305 673.013895,199.043417 C672.119089,201.23953 670.764119,202.971709 668.948942,204.240007 C667.133765,205.508304 664.96496,206.142444 662.44246,206.142444 C660.584674,206.142444 658.88883,205.742383 657.354878,204.942249 C655.820926,204.142114 654.542651,203.052587 653.520017,201.673632 L653.085399,205.555114 L649.429498,205.555114 L649.429498,166.663686 L653.698977,166.408325 L653.698977,175.677917 C653.698977,177.959151 653.664889,179.916896 653.596714,181.551212 C654.585261,180.13821 655.867796,179.01889 657.444358,178.19322 C659.02092,177.36755 660.703981,176.954721 662.493592,176.954721 Z M692.269159,206.065835 C689.542133,206.065835 687.611939,205.333809 686.478519,203.869734 C685.345099,202.405659 684.778397,199.86059 684.778397,196.23445 L684.778397,166.663686 L689.02231,166.408325 L689.02231,194.54907 C689.02231,195.706711 689.035093,196.634512 689.060659,197.332501 C689.086225,198.03049 689.150138,198.715701 689.252402,199.388154 C689.354665,200.060607 689.491015,200.567068 689.661454,200.90755 C689.831893,201.248033 690.079026,201.558718 690.40286,201.839617 C690.726695,202.120515 691.114438,202.307777 691.566101,202.40141 C692.017765,202.495043 692.575945,202.541858 693.240658,202.541858 C693.786063,202.541858 694.859813,202.439715 696.461941,202.235426 L696.692033,205.631722 C694.93651,205.921133 693.462233,206.065835 692.269159,206.065835 Z M702.665894,196.208914 L702.665894,177.54205 L706.960939,177.54205 L706.960939,196.259986 C706.960939,197.485724 707.135636,198.52418 707.485037,199.375386 C707.834437,200.226593 708.337225,200.886268 708.993415,201.354431 C709.649606,201.822595 710.391005,202.158816 711.217635,202.363106 C712.044265,202.567395 712.994449,202.669539 714.068215,202.669539 C716.283924,202.669539 718.009594,202.184358 719.245278,201.213983 C720.480962,200.243608 721.098794,198.592292 721.098794,196.259986 L721.098794,177.54205 L725.393839,177.54205 L725.393839,196.208914 C725.393839,197.638941 725.189315,198.924243 724.780261,200.06486 C724.371207,201.205477 723.821549,202.154558 723.131271,202.912131 C722.440992,203.669705 721.610114,204.295332 720.638611,204.789032 C719.667108,205.282732 718.640228,205.640233 717.557939,205.861547 C716.475651,206.082861 715.312421,206.193516 714.068215,206.193516 C712.841054,206.193516 711.682085,206.082861 710.591274,205.861547 C709.500464,205.640233 708.465062,205.278476 707.485037,204.776264 C706.505012,204.274052 705.661351,203.644169 704.954028,202.886595 C704.246706,202.129022 703.688526,201.179941 703.279472,200.039324 C702.870418,198.898707 702.665894,197.621917 702.665894,196.208914 Z M747.141763,180.478698 C744.960142,180.478698 743.17908,181.249028 741.798523,182.789712 C740.417966,184.330395 739.608393,186.4371 739.369778,189.109888 L754.172342,189.109888 C754.172342,186.334955 753.545988,184.202715 752.29326,182.713103 C751.040533,181.223492 749.323384,180.478698 747.141763,180.478698 Z M747.985433,206.142444 C743.911938,206.142444 740.703469,204.848629 738.359931,202.260962 C736.016393,199.673294 734.844642,196.132328 734.844642,191.637958 C734.844642,187.296805 735.978045,183.77712 738.244885,181.078795 C740.511726,178.380471 743.494366,177.005793 747.192895,176.954721 C750.669853,176.954721 753.426665,178.142136 755.463412,180.517002 C757.50016,182.891868 758.518519,186.062564 758.518519,190.029186 C758.518519,190.233476 758.514258,190.608001 758.505736,191.152773 C758.497214,191.697545 758.492953,192.089094 758.492953,192.327432 L739.241949,192.327432 C739.293081,195.510944 740.115437,197.992174 741.709043,199.771195 C743.302649,201.550217 745.445889,202.439714 748.138827,202.439714 C751.104468,202.439714 754.078586,201.656616 757.061271,200.090396 L757.725981,203.537765 C754.879647,205.274226 751.63283,206.142444 747.985433,206.142444 Z M374.58925,344.89521 L374.58925,372.908274 L370.294206,372.908274 L370.294206,344.89521 L374.58925,344.89521 Z M374.58925,334.70632 L374.58925,339.762461 L370.294206,339.762461 L370.294206,334.70632 L374.58925,334.70632 Z M395.340111,373.495604 C393.431193,373.495604 391.671435,373.291317 390.060785,372.882738 C388.450135,372.474159 387.142035,371.946419 386.136444,371.299502 L386.673324,367.698917 C389.519658,369.214064 392.314818,369.971626 395.058888,369.971626 C399.217603,369.971626 401.356582,368.507573 401.475889,365.579423 C401.475889,364.336662 401.032754,363.357789 400.14647,362.642776 C399.260187,361.927762 397.521734,361.12764 394.931059,360.242385 L392.809102,359.50184 C390.354779,358.684681 388.603543,357.671761 387.555343,356.463048 C386.507142,355.254335 385.974528,353.747722 385.957484,351.943164 C385.957484,349.747052 386.839493,347.925497 388.603538,346.478446 C390.367583,345.031395 392.783521,344.30788 395.851426,344.30788 C399.021594,344.30788 401.910494,344.92074 404.518212,346.146477 L403.265491,349.415094 C400.623684,348.325549 398.152354,347.780785 395.851426,347.780785 C394.061815,347.780785 392.659974,348.134031 391.645861,348.840532 C390.631748,349.547034 390.1247,350.538674 390.1247,351.815484 C390.1247,352.905028 390.491138,353.739198 391.224026,354.318018 C391.956915,354.896839 393.422669,355.56077 395.621334,356.309831 C396.183783,356.514121 396.891095,356.752455 397.743291,357.024841 C400.57258,357.944144 402.57521,359.029416 403.75124,360.28069 C404.92727,361.531963 405.515276,363.221582 405.515276,365.349599 C405.481188,367.937266 404.552309,369.941827 402.72861,371.363342 C400.904912,372.784857 398.442103,373.495604 395.340111,373.495604 Z M22.7279446,524.58229 C19.1316789,514.146499 17.1460928,508.281774 16.7711267,506.98794 L10.5586514,524.58229 L22.7279446,524.58229 Z M28.5824995,540.261434 L24.1596261,528.285019 L9.07583838,528.285019 L4.49957058,540.261434 L0,540.261434 L14.5213414,502.416985 L19.0464777,502.416985 L33.1332015,540.261434 L28.5824995,540.261434 Z M41.2290198,540.261434 L41.2290198,512.24837 L44.8082236,512.24837 L45.3451042,516.257532 C46.4529586,514.878578 47.8377558,513.76777 49.4995373,512.925076 C51.1613188,512.082381 52.9551638,511.66104 54.881126,511.66104 C58.1194695,511.66104 60.5141033,512.567562 62.0650994,514.380631 C63.6160955,516.193701 64.3915819,518.98136 64.3915819,522.743693 L64.3915819,540.261434 L60.122103,540.261434 C60.122103,529.025509 60.1135812,523.00757 60.0965373,522.207436 C60.0283617,519.824057 59.5468783,518.07911 58.6520729,516.972542 C57.7572674,515.865974 56.2616865,515.312698 54.1652852,515.312698 C51.9666204,515.312698 50.1344272,515.840438 48.6686507,516.895934 C47.2028741,517.95143 46.2484293,519.321852 45.8052876,521.00724 C45.6348484,522.147857 45.5496302,523.458695 45.5496302,524.939795 L45.5496302,540.261434 L41.2290198,540.261434 Z M86.8042157,537.17157 C89.6164614,537.17157 91.7085703,536.269305 93.0806053,534.464747 C94.4526403,532.660189 95.1386475,530.081073 95.1386475,526.727319 C95.1386475,522.947963 94.4782058,520.10072 93.1573025,518.185505 C91.8363993,516.270291 89.7016812,515.312698 86.7530842,515.312698 C85.4407029,515.312698 84.2817342,515.593592 83.2761433,516.155388 C82.2705524,516.717184 81.4609787,517.500282 80.8473978,518.504706 C80.2338169,519.50913 79.7693773,520.662497 79.4540649,521.964843 C79.1387525,523.267189 78.9810987,524.692938 78.9810987,526.242134 C78.9810987,528.421222 79.2495363,530.310872 79.7864195,531.91114 C80.3233028,533.511409 81.1882684,534.788199 82.3813423,535.74155 C83.5744163,536.694902 85.0486926,537.17157 86.8042157,537.17157 Z M95.2153448,536.2012 C94.2949735,537.614202 93.0678301,538.737778 91.5338779,539.57196 C89.9999258,540.406142 88.2870382,540.823227 86.3951638,540.823227 C82.6966347,540.823227 79.7992129,539.508133 77.7028116,536.877905 C75.6064102,534.247677 74.5582253,530.668408 74.5582253,526.13999 C74.5582253,521.815861 75.6234539,518.321711 77.753943,515.657435 C79.8844322,512.993159 82.7392448,511.66104 86.3184666,511.66104 C88.1762531,511.66104 89.9274889,512.065357 91.5722265,512.874004 C93.2169642,513.68265 94.4483684,514.767922 95.2664763,516.129852 L95.189779,513.703926 L95.189779,501.370006 L99.4081264,501.114645 L99.4081264,540.261434 L95.7777911,540.261434 L95.2153448,536.2012 Z M136.972723,540.848763 C135.063805,540.848763 133.304047,540.644477 131.693398,540.235898 C130.082748,539.827319 128.774647,539.299579 127.769056,538.652662 L128.305937,535.052077 C131.15227,536.567224 133.94743,537.324786 136.6915,537.324786 C140.850215,537.324786 142.989194,535.860733 143.108501,532.932583 C143.108501,531.689822 142.665366,530.710949 141.779083,529.995936 C140.892799,529.280922 139.154346,528.4808 136.563671,527.595545 L134.441715,526.854999 C131.987391,526.037841 130.236155,525.024921 129.187955,523.816208 C128.139754,522.607495 127.60714,521.100882 127.590096,519.296324 C127.590096,517.100211 128.472105,515.278657 130.23615,513.831606 C132.000195,512.384555 134.416134,511.66104 137.484038,511.66104 C140.654206,511.66104 143.543106,512.2739 146.150825,513.499637 L144.898103,516.768254 C142.256297,515.678709 139.784966,515.133945 137.484038,515.133945 C135.694427,515.133945 134.292586,515.487191 133.278474,516.193692 C132.264361,516.900193 131.757312,517.891834 131.757312,519.168644 C131.757312,520.258188 132.123751,521.092358 132.856639,521.671178 C133.589527,522.249999 135.055282,522.91393 137.253946,523.662991 C137.816396,523.867281 138.523707,524.105615 139.375903,524.378001 C142.205193,525.297304 144.207822,526.382576 145.383852,527.633849 C146.559882,528.885123 147.147888,530.574742 147.147888,532.702759 C147.113801,535.290426 146.184921,537.294987 144.361223,538.716502 C142.537524,540.138017 140.074715,540.848763 136.972723,540.848763 Z M160.459118,526.318742 C160.459118,529.638447 161.196256,532.298427 162.670555,534.298763 C164.144853,536.299098 166.296615,537.29925 169.125905,537.29925 C171.921106,537.29925 174.030259,536.303354 175.453426,534.311531 C176.876592,532.319708 177.588165,529.638447 177.588165,526.26767 C177.588165,522.84582 176.885114,520.151792 175.478991,518.185505 C174.072869,516.219218 171.929629,515.23609 169.049207,515.23609 C166.254006,515.23609 164.123548,516.240498 162.657772,518.249345 C161.191995,520.258193 160.459118,522.947965 160.459118,526.318742 Z M182.011039,526.242134 C182.011039,530.583287 180.85207,534.102973 178.534098,536.801297 C176.216125,539.499621 173.011918,540.848763 168.921379,540.848763 C164.984235,540.848763 161.852463,539.486854 159.525969,536.762993 C157.199474,534.039132 156.036245,530.540726 156.036245,526.26767 C156.036245,521.909493 157.203735,518.385551 159.538751,515.695739 C161.873768,513.005926 165.077975,511.66104 169.15147,511.66104 C173.15679,511.66104 176.301345,513.010182 178.585229,515.708507 C180.869113,518.406831 182.011039,521.918005 182.011039,526.242134 Z M217.939428,537.401395 C219.967653,537.401395 221.752977,536.843863 223.295451,535.728782 C224.837925,534.613702 225.830718,533.111345 226.27386,531.221667 L226.27386,526.497495 C226.18864,526.497495 225.673069,526.540054 224.727132,526.625175 C223.781195,526.710296 223.163363,526.761367 222.873616,526.778391 C219.175087,527.10185 216.597234,527.706197 215.139979,528.591452 C213.682725,529.476707 212.954108,530.8982 212.954108,532.855975 C212.954108,534.354098 213.397243,535.486186 214.283527,536.252272 C215.16981,537.018357 216.388432,537.401395 217.939428,537.401395 Z M227.219792,540.261434 C226.964133,539.17189 226.717,537.997242 226.478386,536.737457 C224.92739,538.286653 223.470157,539.359157 222.106644,539.955001 C220.743131,540.550846 219.141027,540.848763 217.300284,540.848763 C214.675522,540.848763 212.566369,540.163553 210.972763,538.79311 C209.379157,537.422668 208.582366,535.452154 208.582366,532.881511 C208.582366,530.021457 209.668899,527.901985 211.841998,526.523031 C214.015097,525.144076 217.146869,524.284371 221.237409,523.943888 C221.799858,523.892816 222.64778,523.820464 223.7812,523.726831 C224.91462,523.633199 225.762542,523.560847 226.324991,523.509775 L226.324991,521.032777 C226.324991,519.057978 225.864812,517.593924 224.944441,516.640573 C224.02407,515.687222 222.575359,515.210554 220.598265,515.210554 C217.837151,515.210554 215.050513,515.891508 212.238267,517.253439 C212.153048,517.049149 211.93148,516.45757 211.573558,515.478682 C211.215636,514.499795 211.028156,513.993335 211.011112,513.959286 C212.255317,513.261297 213.733855,512.703765 215.446768,512.286674 C217.159681,511.869583 218.902395,511.66104 220.674962,511.66104 C224.168964,511.66104 226.687165,512.422859 228.229639,513.946518 C229.772113,515.470178 230.543339,518.062063 230.543339,521.72225 L230.543339,540.261434 L227.219792,540.261434 Z M254.847837,511.993009 C255.614813,511.993009 256.313603,512.044081 256.944228,512.146226 L256.790834,516.07878 C256.006814,515.942587 255.325067,515.874491 254.745574,515.874491 C252.359426,515.874491 250.42071,516.704405 248.929368,518.364258 C247.438026,520.02411 246.692366,522.079743 246.692366,524.531217 L246.692366,540.261434 L242.422887,540.261434 C242.405843,523.067064 242.397321,513.729469 242.397321,512.24837 L245.950959,512.24837 L246.360011,517.278975 C247.331514,515.695731 248.567179,514.41894 250.067043,513.448565 C251.566908,512.47819 253.16049,511.993009 254.847837,511.993009 Z M276.212276,515.185017 C274.030655,515.185017 272.249592,515.955348 270.869035,517.496031 C269.488479,519.036715 268.678905,521.143419 268.44029,523.816208 L283.242855,523.816208 C283.242855,521.041275 282.6165,518.909034 281.363773,517.419423 C280.111045,515.929812 278.393896,515.185017 276.212276,515.185017 Z M277.055945,540.848763 C272.98245,540.848763 269.773981,539.554949 267.430443,536.967281 C265.086905,534.379614 263.915154,530.838648 263.915154,526.344278 C263.915154,522.003125 265.048557,518.483439 267.315397,515.785115 C269.582238,513.086791 272.564878,511.712113 276.263407,511.66104 C279.740365,511.66104 282.497177,512.848456 284.533925,515.223322 C286.570672,517.598188 287.589031,520.768884 287.589031,524.735506 C287.589031,524.939796 287.58477,525.314321 287.576248,525.859093 C287.567726,526.403865 287.563465,526.795414 287.563465,527.033752 L268.312461,527.033752 C268.363593,530.217264 269.18595,532.698494 270.779555,534.477515 C272.373161,536.256537 274.516401,537.146034 277.209339,537.146034 C280.17498,537.146034 283.149099,536.362936 286.131783,534.796716 L286.796493,538.244085 C283.950159,539.980546 280.703342,540.848763 277.055945,540.848763 Z M311.731613,512.24837 L316.256749,512.24837 L325.102496,535.562798 L332.976744,512.24837 L337.501881,512.24837 C329.934383,533.051855 326.022864,543.776896 325.767205,544.423813 C324.591175,547.368987 323.16803,549.526763 321.497726,550.897205 C319.827423,552.267648 317.628791,552.952859 314.901765,552.952859 C314.083657,552.952859 313.222952,552.884763 312.319625,552.74857 L312.063968,549.122449 C313.018427,549.190545 313.73426,549.224593 314.21149,549.224593 C316.137452,549.224593 317.598946,548.871348 318.596015,548.164846 C319.593084,547.458345 320.483615,546.134739 321.267635,544.193988 C321.966435,542.406455 322.486267,541.027521 322.827145,540.057145 L311.731613,512.24837 Z M348.409931,526.318742 C348.409931,529.638447 349.147069,532.298427 350.621367,534.298763 C352.095666,536.299098 354.247428,537.29925 357.076717,537.29925 C359.871919,537.29925 361.981072,536.303354 363.404238,534.311531 C364.827405,532.319708 365.538978,529.638447 365.538978,526.26767 C365.538978,522.84582 364.835927,520.151792 363.429804,518.185505 C362.023681,516.219218 359.880441,515.23609 357.00002,515.23609 C354.204818,515.23609 352.074361,516.240498 350.608584,518.249345 C349.142808,520.258193 348.409931,522.947965 348.409931,526.318742 Z M369.961851,526.242134 C369.961851,530.583287 368.802882,534.102973 366.48491,536.801297 C364.166938,539.499621 360.96273,540.848763 356.872191,540.848763 C352.935047,540.848763 349.803275,539.486854 347.476781,536.762993 C345.150287,534.039132 343.987057,530.540726 343.987057,526.26767 C343.987057,521.909493 345.154548,518.385551 347.489564,515.695739 C349.82458,513.005926 353.028788,511.66104 357.102283,511.66104 C361.107603,511.66104 364.252157,513.010182 366.536042,515.708507 C368.819926,518.406831 369.961851,521.918005 369.961851,526.242134 Z M379.387088,530.915234 L379.387088,512.24837 L383.682133,512.24837 L383.682133,530.966306 C383.682133,532.192043 383.85683,533.2305 384.20623,534.081706 C384.555631,534.932912 385.058418,535.592588 385.714609,536.060751 C386.3708,536.528915 387.112199,536.865136 387.938829,537.069426 C388.765458,537.273715 389.715642,537.375859 390.789409,537.375859 C393.005118,537.375859 394.730788,536.890678 395.966472,535.920303 C397.202155,534.949927 397.819988,533.298612 397.819988,530.966306 L397.819988,512.24837 L402.115033,512.24837 L402.115033,530.915234 C402.115033,532.345261 401.910509,533.630563 401.501455,534.77118 C401.092401,535.911796 400.542743,536.860877 399.852464,537.618451 C399.162186,538.376025 398.331308,539.001652 397.359805,539.495352 C396.388301,539.989052 395.361421,540.346553 394.279133,540.567867 C393.196844,540.78918 392.033615,540.899836 390.789409,540.899836 C389.562247,540.899836 388.403278,540.78918 387.312468,540.567867 C386.221658,540.346553 385.186255,539.984796 384.20623,539.482584 C383.226205,538.980372 382.382544,538.350489 381.675222,537.592915 C380.967899,536.835341 380.40972,535.88626 380.000666,534.745644 C379.591612,533.605027 379.387088,532.328237 379.387088,530.915234 Z M413.27874,537.197106 C413.27874,536.294827 413.581265,535.507473 414.186324,534.83502 C414.791383,534.162567 415.622261,533.826345 416.678983,533.826345 C417.75275,533.826345 418.587889,534.158311 419.184426,534.822252 C419.780963,535.486193 420.079227,536.277803 420.079227,537.197106 C420.079227,538.116409 419.780963,538.908019 419.184426,539.57196 C418.587889,540.235901 417.75275,540.567867 416.678983,540.567867 C415.622261,540.567867 414.791383,540.231645 414.186324,539.559192 C413.581265,538.886739 413.27874,538.099385 413.27874,537.197106 Z M419.184426,502.05948 L419.184426,505.685601 L417.752745,529.153245 L415.733051,529.153245 L414.147975,505.685601 L414.147975,502.05948 L419.184426,502.05948 Z" id="Roses-are-are-blue-i" fill="#FFFFFF"></path>
                    <path d="M481.770944,73.9067384 C479.849811,68.3991944 478.789107,65.304055 478.5888,64.6212273 L475.270083,73.9067384 L481.770944,73.9067384 Z M484.898459,82.1814899 L482.535751,75.8608735 L474.477961,75.8608735 L472.033309,82.1814899 L469.62963,82.1814899 L477.38696,62.2088812 L479.804297,62.2088812 L487.329453,82.1814899 L484.898459,82.1814899 Z M497.499568,80.5507978 C499.001876,80.5507978 500.119484,80.0746226 500.852428,79.1222577 C501.585372,78.1698928 501.951839,76.8087502 501.951839,75.0387891 C501.951839,73.0442136 501.599029,71.5415661 500.8934,70.5308015 C500.187771,69.5200369 499.0474,69.0146622 497.472254,69.0146622 C496.771177,69.0146622 496.152053,69.1629054 495.614865,69.4593964 C495.077676,69.7558873 494.6452,70.1691715 494.317424,70.6992614 C493.989648,71.2293513 493.741543,71.8380471 493.573103,72.525367 C493.404662,73.2126869 493.320443,73.9651337 493.320443,74.78273 C493.320443,75.9327555 493.463843,76.9300283 493.750647,77.7745783 C494.037451,78.6191283 494.499518,79.2929612 495.13686,79.7960974 C495.774203,80.2992335 496.561764,80.5507978 497.499568,80.5507978 Z M501.99281,80.0386797 C501.501146,80.7843993 500.845604,81.3773723 500.026163,81.8176165 C499.206723,82.2578606 498.291695,82.4779794 497.281052,82.4779794 C495.30529,82.4779794 493.757481,81.7839314 492.63758,80.3958147 C491.517678,79.007698 490.957735,77.1187196 490.957735,74.7288228 C490.957735,72.446741 491.526783,70.6026848 492.664894,69.1965989 C493.803006,67.790513 495.328053,67.0874806 497.24008,67.0874806 C498.232513,67.0874806 499.168027,67.3008611 500.046649,67.7276283 C500.925272,68.1543956 501.58309,68.7271536 502.020125,69.4459196 L501.979153,68.1656241 L501.979153,61.6563326 L504.232603,61.5215647 L504.232603,82.1814899 L502.29327,82.1814899 L501.99281,80.0386797 Z M513.077963,67.3974469 L513.077963,84.0547643 C513.077963,85.0071292 513.016506,85.7752987 512.893589,86.3592961 C512.770673,86.9432934 512.538502,87.4396837 512.197069,87.8484818 C511.855635,88.2572799 511.393569,88.5425359 510.810856,88.7042582 C510.228142,88.8659806 509.467895,88.9468405 508.530091,88.9468405 L507.819913,88.9468405 L507.519453,86.9118446 L508.229631,86.9118446 C508.584722,86.9118446 508.892008,86.8916296 509.151497,86.8511991 C509.410987,86.8107685 509.634053,86.7591079 509.820703,86.6962159 C510.007354,86.6333239 510.159858,86.5300028 510.278222,86.3862497 C510.396586,86.2424965 510.489909,86.1054838 510.558196,85.9752074 C510.626483,85.8449311 510.676559,85.6495196 510.708426,85.3889669 C510.740293,85.1284142 510.760779,84.8948188 510.769884,84.6881736 C510.778989,84.4815284 510.783541,84.1895341 510.783541,83.812182 L510.783541,67.3974469 L513.077963,67.3974469 Z M513.077963,62.0202061 L513.077963,64.6886113 L510.783541,64.6886113 L510.783541,62.0202061 L513.077963,62.0202061 Z M524.818664,68.9472782 C523.653238,68.9472782 522.70179,69.3538241 521.964294,70.1669281 C521.226798,70.980032 520.794322,72.0918564 520.666853,73.5024346 L528.574413,73.5024346 C528.574413,72.037949 528.239814,70.9126479 527.570604,70.1264977 C526.901394,69.3403474 525.98409,68.9472782 524.818664,68.9472782 Z M525.269354,82.4914562 C523.093284,82.4914562 521.379314,81.8086388 520.127391,80.4429835 C518.875468,79.0773282 518.249516,77.2085648 518.249516,74.8366372 C518.249516,72.5455707 518.854983,70.6880379 520.065933,69.2639829 C521.276884,67.8399278 522.870217,67.1144343 524.845978,67.0874806 C526.703377,67.0874806 528.176071,67.7141453 529.264106,68.9674934 C530.35214,70.2208415 530.89615,71.8941934 530.89615,73.9875992 C530.89615,74.0954141 530.893873,74.2930717 530.889321,74.5805781 C530.884768,74.8680845 530.882492,75.0747266 530.882492,75.2005106 L520.598567,75.2005106 C520.625882,76.880626 521.065186,78.1901081 521.916494,79.1289961 C522.767801,80.0678841 523.912724,80.5373211 525.351297,80.5373211 C526.935549,80.5373211 528.524329,80.1240368 530.117685,79.297456 L530.472774,81.1168232 C528.952257,82.0332498 527.217801,82.4914562 525.269354,82.4914562 Z M542.732452,82.4914562 C540.529068,82.4914562 538.805992,81.7861777 537.563174,80.3755995 C536.320357,78.9650214 535.698957,77.118719 535.698957,74.8366372 C535.708062,72.5365862 536.343119,70.6700689 537.604146,69.2370293 C538.865174,67.8039897 540.592801,67.0874806 542.787081,67.0874806 C543.560997,67.0874806 544.309863,67.1818172 545.033702,67.3704933 C545.757541,67.5591694 546.328864,67.8062414 546.747689,68.111717 L546.119455,69.8637002 C545.054182,69.297672 543.929745,69.0146622 542.746109,69.0146622 C541.298431,69.0146622 540.153508,69.5357597 539.311305,70.5779703 C538.469103,71.6201809 538.048008,73.0442146 538.048008,74.850114 C538.048008,76.6110905 538.46455,78.0059248 539.297648,79.0346585 C540.130746,80.0633923 541.284773,80.5777514 542.759766,80.5777514 C543.934297,80.5777514 545.136125,80.2632961 546.365286,79.6343759 L546.652088,81.4267895 C545.659655,82.1365708 544.353123,82.4914562 542.732452,82.4914562 Z M556.726603,82.4510258 C555.25161,82.4510258 554.204563,82.0961404 553.58543,81.3863591 C552.966297,80.6765777 552.638526,79.5310617 552.602107,77.9497766 L552.602107,69.0685693 L550.375971,69.0685693 L550.471572,67.586122 L552.588449,67.3974469 L553.366914,64.0147716 L554.869214,63.9608644 L554.869214,67.3974469 L559.034681,67.3974469 L559.034681,69.0685693 L554.869214,69.0685693 L554.869214,77.5454728 C554.869214,78.6685446 555.042204,79.4591752 555.38819,79.9173885 C555.734176,80.3756018 556.325985,80.604705 557.163635,80.604705 C557.464097,80.604705 558.115087,80.5328295 559.116625,80.3890763 L559.212226,82.1680131 C558.128744,82.3566892 557.300211,82.4510258 556.726603,82.4510258 Z M566.664544,67.3974469 L566.664544,82.1814899 L564.370122,82.1814899 L564.370122,67.3974469 L566.664544,67.3974469 Z M566.664544,62.0202061 L566.664544,64.6886113 L564.370122,64.6886113 L564.370122,62.0202061 L566.664544,62.0202061 Z M577.121462,82.1814899 L571.317121,67.3974469 L573.761773,67.3974469 L577.066833,76.1843166 L578.43256,79.9308653 C578.742126,78.9695159 579.17005,77.7296632 579.716343,76.2112702 C580.408315,74.2975559 581.482676,71.3596441 582.939459,67.3974469 L585.370453,67.3974469 L579.607085,82.1814899 L577.121462,82.1814899 Z M595.403996,68.9472782 C594.238569,68.9472782 593.287122,69.3538241 592.549626,70.1669281 C591.81213,70.980032 591.379654,72.0918564 591.252185,73.5024346 L599.159745,73.5024346 C599.159745,72.037949 598.825146,70.9126479 598.155936,70.1264977 C597.486726,69.3403474 596.569422,68.9472782 595.403996,68.9472782 Z M595.854686,82.4914562 C593.678616,82.4914562 591.964646,81.8086388 590.712723,80.4429835 C589.4608,79.0773282 588.834848,77.2085648 588.834848,74.8366372 C588.834848,72.5455707 589.440315,70.6880379 590.651265,69.2639829 C591.862216,67.8399278 593.455548,67.1144343 595.43131,67.0874806 C597.288708,67.0874806 598.761403,67.7141453 599.849438,68.9674934 C600.937472,70.2208415 601.481481,71.8941934 601.481481,73.9875992 C601.481481,74.0954141 601.479205,74.2930717 601.474653,74.5805781 C601.4701,74.8680845 601.467824,75.0747266 601.467824,75.2005106 L591.183899,75.2005106 C591.211214,76.880626 591.650518,78.1901081 592.501826,79.1289961 C593.353133,80.0678841 594.498056,80.5373211 595.936629,80.5373211 C597.520881,80.5373211 599.109661,80.1240368 600.703017,79.297456 L601.058106,81.1168232 C599.537589,82.0332498 597.803133,82.4914562 595.854686,82.4914562 Z" id="Adjective" fill="#52B1DB"></path>
                    <path d="M550.659833,401.527601 C548.7387,396.020057 547.677996,392.924918 547.477688,392.24209 L544.158972,401.527601 L550.659833,401.527601 Z M553.787348,409.802353 L551.42464,403.481736 L543.36685,403.481736 L540.922198,409.802353 L538.518519,409.802353 L546.275849,389.829744 L548.693186,389.829744 L556.218342,409.802353 L553.787348,409.802353 Z M566.388457,408.17166 C567.890764,408.17166 569.008373,407.695485 569.741317,406.74312 C570.474261,405.790755 570.840728,404.429613 570.840728,402.659652 C570.840728,400.665076 570.487918,399.162429 569.782289,398.151664 C569.07666,397.140899 567.936289,396.635525 566.361143,396.635525 C565.660066,396.635525 565.040942,396.783768 564.503754,397.080259 C563.966565,397.37675 563.534089,397.790034 563.206313,398.320124 C562.878537,398.850214 562.630432,399.45891 562.461992,400.14623 C562.293551,400.83355 562.209332,401.585996 562.209332,402.403593 C562.209332,403.553618 562.352732,404.550891 562.639536,405.395441 C562.92634,406.239991 563.388407,406.913824 564.025749,407.41696 C564.663092,407.920096 565.450653,408.17166 566.388457,408.17166 Z M570.881699,407.659542 C570.390035,408.405262 569.734493,408.998235 568.915052,409.438479 C568.095612,409.878723 567.180584,410.098842 566.169941,410.098842 C564.194179,410.098842 562.64637,409.404794 561.526469,408.016677 C560.406567,406.628561 559.846624,404.739582 559.846624,402.349685 C559.846624,400.067604 560.415671,398.223547 561.553783,396.817461 C562.691895,395.411376 564.216941,394.708343 566.128969,394.708343 C567.121402,394.708343 568.056916,394.921724 568.935538,395.348491 C569.81416,395.775258 570.471979,396.348016 570.909014,397.066782 L570.868042,395.786487 L570.868042,389.277195 L573.121492,389.142427 L573.121492,409.802353 L571.182159,409.802353 L570.881699,407.659542 Z M581.966852,395.018309 L581.966852,411.675627 C581.966852,412.627992 581.905394,413.396161 581.782478,413.980159 C581.659562,414.564156 581.427391,415.060546 581.085958,415.469344 C580.744524,415.878143 580.282458,416.163398 579.699744,416.325121 C579.117031,416.486843 578.356784,416.567703 577.41898,416.567703 L576.708802,416.567703 L576.408342,414.532707 L577.11852,414.532707 C577.473611,414.532707 577.780897,414.512492 578.040386,414.472062 C578.299875,414.431631 578.522942,414.379971 578.709592,414.317079 C578.896243,414.254186 579.048747,414.150865 579.167111,414.007112 C579.285475,413.863359 579.378798,413.726346 579.447085,413.59607 C579.515372,413.465794 579.565448,413.270382 579.597315,413.009829 C579.629182,412.749277 579.649668,412.515681 579.658773,412.309036 C579.667878,412.102391 579.67243,411.810397 579.67243,411.433045 L579.67243,395.018309 L581.966852,395.018309 Z M581.966852,389.641069 L581.966852,392.309474 L579.67243,392.309474 L579.67243,389.641069 L581.966852,389.641069 Z M593.707553,396.568141 C592.542126,396.568141 591.590679,396.974687 590.853183,397.787791 C590.115687,398.600895 589.683211,399.712719 589.555742,401.123297 L597.463302,401.123297 C597.463302,399.658812 597.128703,398.533511 596.459493,397.74736 C595.790283,396.96121 594.872979,396.568141 593.707553,396.568141 Z M594.158243,410.112319 C591.982173,410.112319 590.268203,409.429501 589.01628,408.063846 C587.764357,406.698191 587.138405,404.829427 587.138405,402.4575 C587.138405,400.166433 587.743872,398.3089 588.954822,396.884845 C590.165773,395.46079 591.759105,394.735297 593.734867,394.708343 C595.592265,394.708343 597.06496,395.335008 598.152995,396.588356 C599.241029,397.841704 599.785038,399.515056 599.785038,401.608462 C599.785038,401.716277 599.782762,401.913934 599.77821,402.201441 C599.773657,402.488947 599.771381,402.695589 599.771381,402.821373 L589.487456,402.821373 C589.514771,404.501489 589.954075,405.810971 590.805383,406.749859 C591.65669,407.688747 592.801613,408.158184 594.240186,408.158184 C595.824438,408.158184 597.413218,407.744899 599.006574,406.918319 L599.361663,408.737686 C597.841146,409.654112 596.10669,410.112319 594.158243,410.112319 Z M611.621341,410.112319 C609.417956,410.112319 607.694881,409.40704 606.452063,407.996462 C605.209245,406.585884 604.587846,404.739582 604.587846,402.4575 C604.596951,400.157449 605.232007,398.290931 606.493035,396.857892 C607.754063,395.424852 609.48169,394.708343 611.67597,394.708343 C612.449886,394.708343 613.198752,394.80268 613.922591,394.991356 C614.64643,395.180032 615.217753,395.427104 615.636578,395.73258 L615.008344,397.484563 C613.943071,396.918535 612.818634,396.635525 611.634998,396.635525 C610.18732,396.635525 609.042397,397.156622 608.200194,398.198833 C607.357991,399.241043 606.936896,400.665077 606.936896,402.470977 C606.936896,404.231953 607.353439,405.626787 608.186537,406.655521 C609.019634,407.684255 610.173662,408.198614 611.648655,408.198614 C612.823186,408.198614 614.025014,407.884159 615.254175,407.255238 L615.540977,409.047652 C614.548544,409.757433 613.242011,410.112319 611.621341,410.112319 Z M625.615491,410.071888 C624.140499,410.071888 623.093452,409.717003 622.474319,409.007222 C621.855186,408.29744 621.527415,407.151924 621.490996,405.570639 L621.490996,396.689432 L619.26486,396.689432 L619.360461,395.206985 L621.477338,395.018309 L622.255803,391.635634 L623.758103,391.581727 L623.758103,395.018309 L627.92357,395.018309 L627.92357,396.689432 L623.758103,396.689432 L623.758103,405.166335 C623.758103,406.289407 623.931093,407.080038 624.277079,407.538251 C624.623065,407.996464 625.214874,408.225568 626.052524,408.225568 C626.352986,408.225568 627.003976,408.153692 628.005514,408.009939 L628.101115,409.788876 C627.017633,409.977552 626.1891,410.071888 625.615491,410.071888 Z M635.553433,395.018309 L635.553433,409.802353 L633.259011,409.802353 L633.259011,395.018309 L635.553433,395.018309 Z M635.553433,389.641069 L635.553433,392.309474 L633.259011,392.309474 L633.259011,389.641069 L635.553433,389.641069 Z M646.010351,409.802353 L640.20601,395.018309 L642.650662,395.018309 L645.955721,403.805179 L647.321449,407.551728 C647.631015,406.590378 648.058938,405.350526 648.605232,403.832133 C649.297204,401.918418 650.371565,398.980507 651.828348,395.018309 L654.259342,395.018309 L648.495974,409.802353 L646.010351,409.802353 Z M664.292885,396.568141 C663.127458,396.568141 662.176011,396.974687 661.438515,397.787791 C660.701019,398.600895 660.268543,399.712719 660.141074,401.123297 L668.048634,401.123297 C668.048634,399.658812 667.714034,398.533511 667.044825,397.74736 C666.375615,396.96121 665.458311,396.568141 664.292885,396.568141 Z M664.743575,410.112319 C662.567505,410.112319 660.853535,409.429501 659.601612,408.063846 C658.349689,406.698191 657.723737,404.829427 657.723737,402.4575 C657.723737,400.166433 658.329203,398.3089 659.540154,396.884845 C660.751105,395.46079 662.344437,394.735297 664.320199,394.708343 C666.177597,394.708343 667.650292,395.335008 668.738326,396.588356 C669.826361,397.841704 670.37037,399.515056 670.37037,401.608462 C670.37037,401.716277 670.368094,401.913934 670.363542,402.201441 C670.358989,402.488947 670.356713,402.695589 670.356713,402.821373 L660.072788,402.821373 C660.100102,404.501489 660.539407,405.810971 661.390714,406.749859 C662.242022,407.688747 663.386945,408.158184 664.825518,408.158184 C666.40977,408.158184 667.99855,407.744899 669.591906,406.918319 L669.946995,408.737686 C668.426478,409.654112 666.692022,410.112319 664.743575,410.112319 Z" id="Adjective-Copy" fill="#52B1DB"></path>
                    <path d="M225.590002,245.000051 L222.91172,245.000051 L212.417229,228.937576 L211.733994,227.985419 C211.806873,229.917341 211.843311,231.642246 211.843311,233.160185 L211.843311,245.000051 L209.62963,245.000051 L209.62963,224.590772 L212.266917,224.590772 L222.788738,240.653247 L223.485638,241.605404 C223.421869,238.670722 223.389985,236.973415 223.389985,236.513434 L223.389985,224.590772 L225.590002,224.590772 L225.590002,245.000051 Z M233.920916,237.465591 C233.920916,239.259519 234.314911,240.69694 235.102912,241.777896 C235.890914,242.858853 237.041015,243.399323 238.55325,243.399323 C240.047264,243.399323 241.174591,242.861153 241.935263,241.784796 C242.695936,240.708439 243.076266,239.259519 243.076266,237.437992 C243.076266,235.588866 242.70049,234.133047 241.948928,233.070489 C241.197366,232.007932 240.05182,231.476661 238.512255,231.476661 C237.018241,231.476661 235.879527,232.019431 235.09608,233.104988 C234.312633,234.190544 233.920916,235.644064 233.920916,237.465591 Z M245.440259,237.424193 C245.440259,239.770099 244.820799,241.672094 243.58186,243.130235 C242.342921,244.588377 240.630295,245.317436 238.443932,245.317436 C236.339557,245.317436 234.665648,244.581477 233.422154,243.109536 C232.17866,241.637595 231.556922,239.747099 231.556922,237.437992 C231.556922,235.082887 232.180937,233.178592 233.428986,231.72505 C234.677035,230.271509 236.389661,229.544749 238.566914,229.544749 C240.707728,229.544749 242.38847,230.273808 243.609189,231.73195 C244.829909,233.190091 245.440259,235.087487 245.440259,237.424193 Z M250.47798,239.949479 L250.47798,229.862134 L252.77365,229.862134 L252.77365,239.977078 C252.77365,240.639451 252.867024,241.20062 253.053776,241.660601 C253.240528,242.120583 253.509265,242.477063 253.859994,242.730053 C254.210723,242.983043 254.606995,243.164733 255.048823,243.275129 C255.49065,243.385524 255.998517,243.440721 256.572437,243.440721 C257.756717,243.440721 258.679075,243.178536 259.339539,242.654157 C260.000003,242.129778 260.33023,241.237427 260.33023,239.977078 L260.33023,229.862134 L262.6259,229.862134 L262.6259,239.949479 C262.6259,240.722248 262.516584,241.416809 262.297947,242.033185 C262.079311,242.64956 261.785523,243.162432 261.416574,243.571815 C261.047625,243.981199 260.603527,244.31928 260.084266,244.586069 C259.565004,244.852859 259.016144,245.046048 258.437669,245.165643 C257.859194,245.285238 257.237456,245.345035 256.572437,245.345035 C255.916528,245.345035 255.297068,245.285238 254.714038,245.165643 C254.131007,245.046048 253.577593,244.850559 253.053776,244.57917 C252.52996,244.307781 252.079029,243.967399 251.700971,243.558016 C251.322912,243.148632 251.024569,242.635761 250.805933,242.019385 C250.587297,241.40301 250.47798,240.713048 250.47798,239.949479 Z M268.360521,245.000051 L268.360521,229.862134 L270.273579,229.862134 L270.560538,232.028636 C271.152678,231.283466 271.892842,230.683199 272.781052,230.227818 C273.669262,229.772436 274.628059,229.544749 275.657472,229.544749 C277.388342,229.544749 278.668257,230.034622 279.497253,231.014382 C280.326249,231.994143 280.740741,233.50056 280.740741,235.533678 L280.740741,245.000051 L278.458735,245.000051 C278.458735,238.928295 278.454181,235.676274 278.445071,235.243891 C278.408631,233.955943 278.151282,233.012995 277.673015,232.415019 C277.194748,231.817043 276.395371,231.518059 275.27486,231.518059 C274.09969,231.518059 273.120396,231.803244 272.336949,232.373621 C271.553502,232.943998 271.043358,233.684557 270.806502,234.595321 C270.715404,235.211696 270.669855,235.920057 270.669855,236.720425 L270.669855,245.000051 L268.360521,245.000051 Z" id="Noun" fill="#52B1DB"></path>
                    <path d="M142.627039,409.551706 L139.948757,409.551706 L129.454266,393.489231 L128.771031,392.537074 C128.84391,394.468996 128.880348,396.193901 128.880348,397.71184 L128.880348,409.551706 L126.666667,409.551706 L126.666667,389.142427 L129.303954,389.142427 L139.825775,405.204902 L140.522675,406.157059 C140.458906,403.222377 140.427022,401.52507 140.427022,401.065089 L140.427022,389.142427 L142.627039,389.142427 L142.627039,409.551706 Z M150.957953,402.017246 C150.957953,403.811174 151.351948,405.248595 152.139949,406.329551 C152.927951,407.410508 154.078052,407.950978 155.590287,407.950978 C157.084302,407.950978 158.211628,407.412808 158.9723,406.336451 C159.732973,405.260094 160.113303,403.811174 160.113303,401.989647 C160.113303,400.140521 159.737527,398.684702 158.985965,397.622144 C158.234403,396.559587 157.088857,396.028316 155.549293,396.028316 C154.055278,396.028316 152.916564,396.571086 152.133117,397.656643 C151.34967,398.742199 150.957953,400.195719 150.957953,402.017246 Z M162.477297,401.975848 C162.477297,404.321754 161.857836,406.223749 160.618897,407.68189 C159.379958,409.140032 157.667332,409.869091 155.480969,409.869091 C153.376594,409.869091 151.702685,409.133132 150.459191,407.661191 C149.215697,406.18925 148.593959,404.298754 148.593959,401.989647 C148.593959,399.634542 149.217974,397.730247 150.466023,396.276705 C151.714072,394.823163 153.426698,394.096404 155.603951,394.096404 C157.744765,394.096404 159.425507,394.825463 160.646226,396.283605 C161.866946,397.741746 162.477297,399.639142 162.477297,401.975848 Z M167.515017,404.501134 L167.515017,394.413789 L169.810687,394.413789 L169.810687,404.528732 C169.810687,405.191106 169.904062,405.752275 170.090813,406.212256 C170.277565,406.672238 170.546302,407.028718 170.897031,407.281708 C171.24776,407.534698 171.644032,407.716388 172.08586,407.826784 C172.527687,407.937179 173.035554,407.992376 173.609474,407.992376 C174.793754,407.992376 175.716112,407.730191 176.376576,407.205812 C177.03704,406.681433 177.367267,405.789082 177.367267,404.528732 L177.367267,394.413789 L179.662937,394.413789 L179.662937,404.501134 C179.662937,405.273903 179.553621,405.968464 179.334984,406.58484 C179.116348,407.201215 178.82256,407.714087 178.453611,408.12347 C178.084662,408.532854 177.640564,408.870935 177.121303,409.137724 C176.602041,409.404514 176.053181,409.597703 175.474706,409.717298 C174.896231,409.836893 174.274493,409.89669 173.609474,409.89669 C172.953565,409.89669 172.334105,409.836893 171.751075,409.717298 C171.168044,409.597703 170.61463,409.402214 170.090813,409.130825 C169.566997,408.859436 169.116067,408.519054 168.738008,408.109671 C168.359949,407.700287 168.061606,407.187415 167.84297,406.57104 C167.624334,405.954665 167.515017,405.264703 167.515017,404.501134 Z M185.397558,409.551706 L185.397558,394.413789 L187.310616,394.413789 L187.597575,396.580291 C188.189715,395.835121 188.929879,395.234854 189.818089,394.779473 C190.706299,394.324091 191.665096,394.096404 192.694509,394.096404 C194.425379,394.096404 195.705294,394.586277 196.53429,395.566037 C197.363286,396.545798 197.777778,398.052215 197.777778,400.085333 L197.777778,409.551706 L195.495773,409.551706 C195.495773,403.479949 195.491218,400.227929 195.482108,399.795546 C195.445668,398.507598 195.188319,397.56465 194.710052,396.966674 C194.231785,396.368698 193.432408,396.069714 192.311897,396.069714 C191.136727,396.069714 190.157433,396.354899 189.373986,396.925276 C188.590539,397.495653 188.080395,398.236212 187.843539,399.146976 C187.752441,399.763351 187.706892,400.471712 187.706892,401.27208 L187.706892,409.551706 L185.397558,409.551706 Z" id="Noun-Copy" fill="#52B1DB"></path>
                    <path d="M313.122837,37.4317954 L758.17001,37.4317954" id="Line" stroke="#FFFFFF" stroke-width="4" stroke-linecap="square"></path>
                    <path d="M3.60071367,202.724674 L490.026956,202.724674" id="Line-Copy" stroke="#FFFFFF" stroke-width="4" stroke-linecap="square"></path>
                    <path d="M452.54545,368.017553 L758.18526,368.017553" id="Line-Copy-3" stroke="#FFFFFF" stroke-width="4" stroke-linecap="square"></path>
                    <path d="M3.59728149,368.017553 L322.764678,368.017553" id="Line-Copy-4" stroke="#FFFFFF" stroke-width="4" stroke-linecap="square"></path>
                </g>
            </g>
        </g>
    </g>
</svg>